<svg width="66" height="50" viewBox="0 0 66 50" fill="none" xmlns="http://www.w3.org/2000/svg">
<path d="M10.7891 9.14624L8.43968 0.53186C7.90219 5.04162 6.32117 6.95096 1 9.14624H10.7891ZM10.7891 9.14624C12.865 8.62725 14.8207 8.27447 16.6625 8.06692M10.7891 9.14624C12.1395 13.245 14.6332 16.4724 17.6813 19.0034M27.6262 16.9774C26.7643 17.3284 25.9918 17.4852 25.1865 17.4397M24.4937 20.1099C23.9566 20.1866 23.3341 19.8469 22.9275 19.7184M38.1984 15.0196C31.7446 16.9651 31.7883 20.3419 30.6285 25.5918M30.6285 25.5918C38.0621 27.8286 44.6654 27.9287 44.855 27.5497C45.1197 27.0201 42.628 15.5009 32.0795 10.3209M30.6285 25.5918C30.2168 25.4679 29.8026 25.3375 29.3868 25.2002M29.584 17.369C29.2913 17.0917 29.0045 16.8311 28.7229 16.5859M15.4878 11.8871C16.3176 12.013 17.0963 12.1155 17.8372 12.214M15.4878 11.8871C15.1734 10.2138 15.2315 9.41613 16.6625 8.06692M15.4878 11.8871C15.9109 15.3254 16.3547 16.9315 17.6813 19.0034M26.8431 15.1185C28.1674 11.8166 29.3369 10.8132 32.0795 10.3209M26.8431 15.1185C25.8979 14.4688 24.9967 13.9859 24.1022 13.6152M26.8431 15.1185C27.4484 15.5345 28.0717 16.0189 28.7229 16.5859M32.0795 10.3209C30.7306 9.65843 29.2498 9.09967 27.6262 8.68082M24.1022 13.6152C24.5048 10.6598 25.3647 9.67325 27.6262 8.68082M24.1022 13.6152C23.0249 13.1689 21.9575 12.8855 20.8348 12.6702M24.1022 13.6152C24.0727 15.274 23.9966 16.2257 25.1865 17.4397M27.6262 8.68082C26.1341 8.2959 24.5214 8.02915 22.7794 7.9087M20.8348 12.6702C20.5256 10.5584 20.9742 9.52594 22.7794 7.9087M20.8348 12.6702C19.8879 12.4887 18.9016 12.3556 17.8372 12.214M20.8348 12.6702C20.903 14.1074 20.9777 14.9106 21.7528 16.2949M22.7794 7.9087C21.5852 7.82613 20.3303 7.81231 19.0119 7.87631M17.8372 12.214C17.4603 10.4164 17.7609 9.47336 19.0119 7.87631M17.8372 12.214C18.2117 15.7357 18.4825 17.706 20.5781 21.1106M19.0119 7.87631C18.2501 7.91329 17.4672 7.97624 16.6625 8.06692M17.6813 19.0034C18.6017 19.7677 19.5728 20.4685 20.5781 21.1106M20.5781 21.1106C21.7166 21.8377 22.8991 22.4896 24.1022 23.0731M21.7528 16.2949C21.2713 16.0427 20.7528 15.7483 20.1865 15.4112C21.1256 18.2677 21.7073 19.3327 22.9275 19.7184M21.7528 16.2949C23.111 17.0063 24.1747 17.3827 25.1865 17.4397M22.9275 19.7184C23.1243 21.0247 23.4345 22.057 24.1022 23.0731M24.1022 23.0731C24.8324 23.4274 25.5702 23.7564 26.3102 24.0619M26.3102 24.0619C25.7694 22.5204 25.5128 21.6556 25.6684 20.1099M26.3102 24.0619C27.336 24.4853 28.3662 24.8633 29.3868 25.2002M28.7229 16.5859C28.2458 20.0176 28.3305 21.9093 29.3868 25.2002M38.1984 21.6762C39.0632 23.1679 41.2968 21.9995 40.5478 20.5015C39.7988 19.0034 37.3336 20.1845 38.1984 21.6762Z" stroke="black"/>
<path d="M41.0482 9.57597L40.2196 3.20346C39.4029 6.36998 38.0996 7.58076 34.1224 8.63671L41.0482 9.57597ZM41.0482 9.57597C42.5672 9.40481 43.985 9.34072 45.3081 9.36934M41.0482 9.57597C41.607 12.6303 43.059 15.1727 44.9706 17.2712M52.2028 16.7797C51.559 16.9475 50.9973 16.9852 50.4319 16.8755M49.6834 18.7144C49.2959 18.7176 48.8884 18.4155 48.6131 18.2847M59.8721 16.397C55.1178 17.1661 54.8219 19.5799 53.4933 23.2148M53.4933 23.2148C58.5361 25.5242 63.1983 26.2293 63.3691 25.977C63.6076 25.6245 62.9595 17.1655 55.9977 12.457M53.4933 23.2148C53.214 23.087 52.9335 22.9541 52.6526 22.8163M53.55 17.247C53.3697 17.021 53.192 16.8075 53.0165 16.6055M44.1073 11.9827C44.6822 12.1521 45.2233 12.3 45.7379 12.4414M44.1073 11.9827C44.0468 10.7585 44.1651 10.1948 45.3081 9.36934M44.1073 11.9827C44.074 14.4767 44.2325 15.6655 44.9706 17.2712M51.8286 15.378C53.0851 13.1489 54.0096 12.5452 55.9977 12.457M51.8286 15.378C51.2227 14.8238 50.6318 14.3927 50.0348 14.0424M51.8286 15.378C52.2166 15.733 52.6107 16.1384 53.0165 16.6055M55.9977 12.457C55.1074 11.8548 54.1138 11.314 53.0057 10.8594M50.0348 14.0424C50.6057 11.972 51.3096 11.3506 53.0057 10.8594M50.0348 14.0424C49.3159 13.6205 48.5881 13.3159 47.8146 13.0545M50.0348 14.0424C49.8535 15.2232 49.7075 15.895 50.4319 16.8755M53.0057 10.8594C51.9872 10.4415 50.872 10.0964 49.6512 9.84335M47.8146 13.0545C47.8002 11.5179 48.2175 10.8242 49.6512 9.84335M47.8146 13.0545C47.1622 12.8341 46.4773 12.6445 45.7379 12.4414M47.8146 13.0545C47.7238 14.0866 47.6989 14.6669 48.1133 15.7291M49.6512 9.84335C48.8143 9.66985 47.9278 9.53958 46.9888 9.45875M45.7379 12.4414C45.6452 11.1225 45.9492 10.4783 46.9888 9.45875M45.7379 12.4414C45.6621 14.9903 45.663 16.4223 46.8162 19.0528M46.9888 9.45875C46.4463 9.41204 45.8862 9.38184 45.3081 9.36934M44.9706 17.2712C45.5478 17.9049 46.167 18.4982 46.8162 19.0528M46.8162 19.0528C47.5513 19.6809 48.3249 20.2595 49.1196 20.7914M48.1133 15.7291C47.7971 15.5029 47.4587 15.2431 47.0907 14.9482C47.4786 17.0767 47.7871 17.8924 48.6131 18.2847M48.1133 15.7291C49.0054 16.3671 49.7216 16.7377 50.4319 16.8755M48.6131 18.2847C48.6259 19.2358 48.7455 20.0022 49.1196 20.7914M49.1196 20.7914C49.6019 21.1142 50.092 21.4198 50.5861 21.7088M50.5861 21.7088C50.3526 20.5569 50.2548 19.9152 50.5145 18.8271M50.5861 21.7088C51.2709 22.1093 51.9632 22.478 52.6526 22.8163M53.0165 16.6055C52.3469 19.0086 52.2238 20.3666 52.6526 22.8163M59.2279 21.1471C59.6954 22.2945 61.3888 21.6751 61.0038 20.5342C60.6189 19.3934 58.7605 19.9996 59.2279 21.1471Z" stroke="black"/>
<path d="M34.9543 35.1129L32.3535 29.2366C32.4678 32.5048 31.5611 34.0353 28.0463 36.1753L34.9543 35.1129ZM34.9543 35.1129C36.3625 34.5183 37.704 34.0549 38.981 33.7073M34.9543 35.1129C36.356 37.8836 38.469 39.9102 40.897 41.3808M47.6933 38.8596C47.1235 39.2029 46.5955 39.3983 46.0222 39.4534M45.8256 41.4291C45.455 41.5419 44.9785 41.3677 44.6775 41.3203M54.9397 36.3188C50.5983 38.4038 50.9987 40.8025 50.7549 44.665M50.7549 44.665C56.2455 45.4503 60.9164 44.805 61.0086 44.5146C61.1375 44.109 58.1183 36.1806 50.1074 33.6385M50.7549 44.665C50.4508 44.6215 50.1442 44.5736 49.8358 44.5211M49.1178 38.9258C48.8808 38.7602 48.6499 38.6058 48.4243 38.4618M38.5702 36.5538C39.1695 36.5534 39.7303 36.5419 40.2639 36.5316M38.5702 36.5538C38.1652 35.397 38.1189 34.8229 38.981 33.7073M38.5702 36.5538C39.2451 38.9551 39.7341 40.0501 40.897 41.3808M46.9372 37.6214C47.5103 35.1276 48.2258 34.2866 50.1074 33.6385M46.9372 37.6214C46.1991 37.2616 45.5102 37.0157 44.8384 36.849M46.9372 37.6214C47.4099 37.8518 47.9028 38.129 48.4243 38.4618M50.1074 33.6385C49.0829 33.3134 47.9768 33.0764 46.7852 32.9545M44.8384 36.849C44.799 34.7017 45.2979 33.9062 46.7852 32.9545M44.8384 36.849C44.0294 36.6482 43.245 36.5623 42.4292 36.5309M44.8384 36.849C44.9992 38.0328 45.0496 38.7184 46.0222 39.4534M46.7852 32.9545C45.6901 32.8424 44.5228 32.8276 43.2803 32.9309M42.4292 36.5309C41.9799 35.0614 42.1834 34.2779 43.2803 32.9309M42.4292 36.5309C41.7411 36.5045 41.0306 36.5168 40.2639 36.5316M42.4292 36.5309C42.6347 37.5465 42.7753 38.11 43.4738 39.0111M43.2803 32.9309C42.4286 33.0017 41.5415 33.1281 40.6181 33.3167M40.2639 36.5316C39.8012 35.293 39.9101 34.5892 40.6181 33.3167M40.2639 36.5316C40.9136 38.9975 41.3205 40.3704 43.1719 42.5662M40.6181 33.3167C40.0846 33.4257 39.5389 33.5555 38.981 33.7073M40.897 41.3808C41.6302 41.8249 42.3922 42.2183 43.1719 42.5662M43.1719 42.5662C44.0549 42.9602 44.9608 43.2958 45.8736 43.5806M43.4738 39.0111C43.1064 38.8839 42.7083 38.7307 42.2718 38.5522C43.2471 40.4834 43.7742 41.1782 44.6775 41.3203M43.4738 39.0111C44.5101 39.3701 45.302 39.5225 46.0222 39.4534M44.6775 41.3203C44.9593 42.2288 45.2912 42.9299 45.8736 43.5806M45.8736 43.5806C46.4277 43.7535 46.9844 43.9076 47.54 44.0447M47.54 44.0447C46.9897 43.0063 46.714 42.4186 46.6546 41.3016M47.54 44.0447C48.3103 44.2347 49.0787 44.392 49.8358 44.5211M48.4243 38.4618C48.4633 40.9562 48.7301 42.2934 49.8358 44.5211M55.6683 41.0565C56.4418 42.0244 57.8902 40.9504 57.1976 39.9655C56.5051 38.9806 54.8947 40.0887 55.6683 41.0565Z" stroke="black"/>
<circle cx="51.12" cy="25.9833" r="1.84937" stroke="black"/>
<circle cx="14.7047" cy="34.2062" r="1.45781" stroke="black"/>
<circle cx="19.795" cy="29.1159" r="1.06625" stroke="black"/>
<circle cx="16.2709" cy="24.8087" r="2.24093" stroke="black"/>
<circle cx="54.644" cy="31.0737" r="1.45781" stroke="black"/>
<circle cx="47.2043" cy="30.6821" r="1.06625" stroke="black"/>
</svg>
